{
  "accessors": [
    {
      "bufferView": 2,
      "componentType": 5126,
      "count": 4537,
      "max": [
        0.8243513107299805,
        1.0247117280960083,
        2.5715765953063965
      ],
      "min": [
        -32.08650207519531,
        -1.067875623703003,
        -0.698839008808136
      ],
      "type": "VEC3"
    },
    {
      "bufferView": 2,
      "byteOffset": 54444,
      "componentType": 5126,
      "count": 4537,
      "max": [
        0.9980067014694214,
        1.0,
        1.0
      ],
      "min": [
        -0.9980078339576721,
        -1.0,
        -1.0
      ],
      "type": "VEC3"
    },
    {
      "bufferView": 1,
      "componentType": 5126,
      "count": 4537,
      "max": [
        1.0,
        0.984375
      ],
      "min": [
        0.0,
        0.0
      ],
      "type": "VEC2"
    },
    {
      "bufferView": 0,
      "componentType": 5125,
      "count": 6042,
      "type": "SCALAR"
    }
  ],
  "asset": {
    "extras": {
      "author": "Vinny Passmore (https://sketchfab.com/HPrendering)",
      "license": "CC-BY-4.0 (http://creativecommons.org/licenses/by/4.0/)",
      "source": "https://sketchfab.com/3d-models/flag-with-pole-e7bd2c1fb6af4b2a824cdd8ac9bcf6ec",
      "title": "Flag With Pole"
    },
    "generator": "Sketchfab-12.65.0",
    "version": "2.0"
  },
  "bufferViews": [
    {
      "buffer": 0,
      "byteLength": 24168,
      "name": "floatBufferViews",
      "target": 34963
    },
    {
      "buffer": 0,
      "byteLength": 36296,
      "byteOffset": 24168,
      "byteStride": 8,
      "name": "floatBufferViews",
      "target": 34962
    },
    {
      "buffer": 0,
      "byteLength": 108888,
      "byteOffset": 60464,
      "byteStride": 12,
      "name": "floatBufferViews",
      "target": 34962
    }
  ],
  "buffers": [
    {
      "byteLength": 169352,
      "uri": "scene.bin"
    }
  ],
  "extensionsUsed": [
    "KHR_materials_clearcoat"
  ],
  "images": [
    {
      "uri": "textures/Scene_-_Root_baseColor.png"
    }
  ],
  "materials": [
    {
      "doubleSided": true,
      "extensions": {
        "KHR_materials_clearcoat": {
          "clearcoatFactor": 0.0017045455,
          "clearcoatRoughnessFactor": 0.04
        }
      },
      "name": "Scene_-_Root",
      "pbrMetallicRoughness": {
        "baseColorTexture": {
          "index": 0
        },
        "metallicFactor": 0.8441287879,
        "roughnessFactor": 0.5714015152
      }
    }
  ],
  "meshes": [
    {
      "name": "Cube.009__0",
      "primitives": [
        {
          "attributes": {
            "NORMAL": 1,
            "POSITION": 0,
            "TEXCOORD_0": 2
          },
          "indices": 3,
          "material": 0,
          "mode": 4
        }
      ]
    }
  ],
  "nodes": [
    {
      "children": [
        1
      ],
      "matrix": [
        1.0,
        0.0,
        0.0,
        0.0,
        0.0,
        2.220446049250313e-16,
        -1.0,
        0.0,
        0.0,
        1.0,
        2.220446049250313e-16,
        0.0,
        4.5979999185874476e-07,
        -1.7131200365838595e-05,
        -1.9860000577410046e-07,
        1.0
      ],
      "name": "Sketchfab_model"
    },
    {
      "children": [
        2
      ],
      "matrix": [
        1.0,
        0.0,
        0.0,
        0.0,
        0.0,
        0.0,
        1.0,
        0.0,
        0.0,
        -1.0,
        0.0,
        0.0,
        0.0,
        0.0,
        0.0,
        1.0
      ],
      "name": "f5ba578188bd4d80a9b8a1fce4e57648.fbx"
    },
    {
      "children": [
        3
      ],
      "name": "RootNode"
    },
    {
      "children": [
        4
      ],
      "matrix": [
        4.917023181915208,
        -8.597196380783578e-07,
        -9.796590505275659e-22,
        0.0,
        4.812940600526933e-06,
        27.526811599730948,
        -2.0782163086806864e-06,
        0.0,
        9.180144631263147e-13,
        5.250430638627153e-06,
        69.5440673828123,
        0.0,
        0.0,
        0.0,
        0.0,
        1.0
      ],
      "name": "Cube.009"
    },
    {
      "mesh": 0,
      "name": "Cube.009__0"
    }
  ],
  "samplers": [
    {
      "magFilter": 9729,
      "minFilter": 9987,
      "wrapS": 10497,
      "wrapT": 10497
    }
  ],
  "scene": 0,
  "scenes": [
    {
      "name": "Sketchfab_Scene",
      "nodes": [
        0
      ]
    }
  ],
  "textures": [
    {
      "sampler": 0,
      "source": 0
    }
  ]
}
